<svg xmlns="http://www.w3.org/2000/svg" viewBox="0 0 128 128" role="img" aria-labelledby="title desc">
  <title id="title">Weather Dashboard Icon</title>
  <desc id="desc">A rounded blue tile with a sun, cloud, and wave line.</desc>
  <defs>
    <linearGradient id="bg" x1="20" y1="16" x2="108" y2="112" gradientUnits="userSpaceOnUse">
      <stop offset="0" stop-color="#1c4670" />
      <stop offset="1" stop-color="#5ea4df" />
    </linearGradient>
    <linearGradient id="sun" x1="31" y1="26" x2="57" y2="52" gradientUnits="userSpaceOnUse">
      <stop offset="0" stop-color="#ffe38a" />
      <stop offset="1" stop-color="#ffb347" />
    </linearGradient>
    <filter id="shadow" x="-20%" y="-20%" width="140%" height="140%">
      <feDropShadow dx="0" dy="8" stdDeviation="8" flood-color="#12304d" flood-opacity="0.22" />
    </filter>
  </defs>

  <rect x="10" y="10" width="108" height="108" rx="28" fill="url(#bg)" />

  <g filter="url(#shadow)">
    <circle cx="44" cy="42" r="16" fill="url(#sun)" />

    <path
      d="M78 79H42c-10.493 0-19-7.835-19-17.5S31.507 44 42 44c1.506 0 2.97.161 4.38.465C50.141 36.983 57.873 32 66.75 32 78.842 32 88.75 41.246 89.882 53.011 98.194 54.616 104 61.236 104 69c0 8.837-7.611 16-17 16h-9Z"
      fill="#f4fbff"
    />

    <path
      d="M33 88c8.833 0 8.833-6 17.667-6S59.5 88 68.333 88 77.167 82 86 82s8.833 6 17.667 6"
      fill="none"
      stroke="#d7f2ff"
      stroke-linecap="round"
      stroke-linejoin="round"
      stroke-width="7"
    />
  </g>
</svg>
